<mxfile host="app.diagrams.net" modified="2022-08-01T01:05:26.647Z" agent="5.0 (Macintosh; Intel Mac OS X 10_15_7) AppleWebKit/605.1.15 (KHTML, like Gecko) Version/15.6 Safari/605.1.15" etag="GCGSKMwqlsXHSbvZ_rrM" version="20.2.2" type="github">
  <diagram id="Zj6nrqpVJ5SCobaAOgbE" name="ページ1">
    <mxGraphModel dx="934" dy="729" grid="1" gridSize="10" guides="1" tooltips="1" connect="1" arrows="1" fold="1" page="1" pageScale="1" pageWidth="827" pageHeight="1169" math="0" shadow="0">
      <root>
        <mxCell id="0" />
        <mxCell id="1" parent="0" />
        <mxCell id="a1fxJlQlr97bYNdIxud4-17" value="" style="edgeStyle=orthogonalEdgeStyle;rounded=0;orthogonalLoop=1;jettySize=auto;html=1;" parent="1" source="a1fxJlQlr97bYNdIxud4-9" target="a1fxJlQlr97bYNdIxud4-16" edge="1">
          <mxGeometry relative="1" as="geometry" />
        </mxCell>
        <mxCell id="a1fxJlQlr97bYNdIxud4-9" value="Player name &lt;br&gt;を入力" style="shape=parallelogram;html=1;strokeWidth=2;perimeter=parallelogramPerimeter;whiteSpace=wrap;rounded=1;arcSize=12;size=0.23;" parent="1" vertex="1">
          <mxGeometry x="270" y="165" width="120" height="40" as="geometry" />
        </mxCell>
        <mxCell id="a1fxJlQlr97bYNdIxud4-13" value="" style="edgeStyle=orthogonalEdgeStyle;rounded=0;orthogonalLoop=1;jettySize=auto;html=1;" parent="1" source="a1fxJlQlr97bYNdIxud4-10" target="a1fxJlQlr97bYNdIxud4-11" edge="1">
          <mxGeometry relative="1" as="geometry" />
        </mxCell>
        <mxCell id="a1fxJlQlr97bYNdIxud4-10" value="開始" style="rounded=1;whiteSpace=wrap;html=1;absoluteArcSize=1;arcSize=100;strokeWidth=2;" parent="1" vertex="1">
          <mxGeometry x="270" y="35" width="120" height="40" as="geometry" />
        </mxCell>
        <mxCell id="a1fxJlQlr97bYNdIxud4-14" value="" style="edgeStyle=orthogonalEdgeStyle;rounded=0;orthogonalLoop=1;jettySize=auto;html=1;" parent="1" source="a1fxJlQlr97bYNdIxud4-11" target="a1fxJlQlr97bYNdIxud4-9" edge="1">
          <mxGeometry relative="1" as="geometry" />
        </mxCell>
        <mxCell id="a1fxJlQlr97bYNdIxud4-11" value="&quot;type your name&quot;&lt;br&gt;を出力" style="rounded=1;whiteSpace=wrap;html=1;absoluteArcSize=1;arcSize=0;strokeWidth=2;" parent="1" vertex="1">
          <mxGeometry x="270" y="95" width="120" height="40" as="geometry" />
        </mxCell>
        <mxCell id="a1fxJlQlr97bYNdIxud4-20" value="" style="edgeStyle=orthogonalEdgeStyle;rounded=0;orthogonalLoop=1;jettySize=auto;html=1;fontSize=8;entryX=0.5;entryY=0;entryDx=0;entryDy=0;" parent="1" source="a1fxJlQlr97bYNdIxud4-16" edge="1" target="a1fxJlQlr97bYNdIxud4-26">
          <mxGeometry relative="1" as="geometry">
            <mxPoint x="410" y="370" as="targetPoint" />
            <Array as="points">
              <mxPoint x="330" y="280" />
              <mxPoint x="330" y="280" />
            </Array>
          </mxGeometry>
        </mxCell>
        <mxCell id="a1fxJlQlr97bYNdIxud4-16" value="&lt;font style=&quot;font-size: 10px;&quot;&gt;ブラックジャックをプレイするか尋ねる．(y/n)&lt;/font&gt;" style="rounded=1;whiteSpace=wrap;html=1;absoluteArcSize=1;arcSize=0;strokeWidth=2;" parent="1" vertex="1">
          <mxGeometry x="270" y="225" width="120" height="40" as="geometry" />
        </mxCell>
        <mxCell id="a1fxJlQlr97bYNdIxud4-24" value="" style="edgeStyle=orthogonalEdgeStyle;rounded=0;orthogonalLoop=1;jettySize=auto;html=1;fontSize=8;" parent="1" source="a1fxJlQlr97bYNdIxud4-21" edge="1">
          <mxGeometry relative="1" as="geometry">
            <mxPoint x="624" y="360" as="targetPoint" />
          </mxGeometry>
        </mxCell>
        <mxCell id="a1fxJlQlr97bYNdIxud4-21" value="ans == &quot;y&quot;" style="rhombus;whiteSpace=wrap;html=1;rounded=1;arcSize=0;strokeWidth=2;" parent="1" vertex="1">
          <mxGeometry x="270" y="285" width="120" height="40" as="geometry" />
        </mxCell>
        <mxCell id="a1fxJlQlr97bYNdIxud4-23" value="&quot;See you later!&quot;&lt;br&gt;を出力" style="whiteSpace=wrap;html=1;rounded=1;arcSize=0;strokeWidth=2;" parent="1" vertex="1">
          <mxGeometry x="570" y="360" width="120" height="40" as="geometry" />
        </mxCell>
        <mxCell id="a1fxJlQlr97bYNdIxud4-25" value="&lt;font style=&quot;font-size: 10px;&quot;&gt;No&lt;/font&gt;" style="text;html=1;align=center;verticalAlign=middle;resizable=0;points=[];autosize=1;strokeColor=none;fillColor=none;fontSize=8;" parent="1" vertex="1">
          <mxGeometry x="470" y="295" width="40" height="30" as="geometry" />
        </mxCell>
        <mxCell id="a1fxJlQlr97bYNdIxud4-33" value="" style="edgeStyle=orthogonalEdgeStyle;rounded=0;orthogonalLoop=1;jettySize=auto;html=1;fontSize=10;" parent="1" source="a1fxJlQlr97bYNdIxud4-26" target="a1fxJlQlr97bYNdIxud4-32" edge="1">
          <mxGeometry relative="1" as="geometry" />
        </mxCell>
        <mxCell id="a1fxJlQlr97bYNdIxud4-26" value="player1.hand，COM.handを初期化" style="whiteSpace=wrap;html=1;rounded=1;arcSize=0;strokeWidth=2;" parent="1" vertex="1">
          <mxGeometry x="270" y="380" width="120" height="40" as="geometry" />
        </mxCell>
        <mxCell id="a1fxJlQlr97bYNdIxud4-35" value="" style="edgeStyle=orthogonalEdgeStyle;rounded=0;orthogonalLoop=1;jettySize=auto;html=1;fontSize=10;" parent="1" source="a1fxJlQlr97bYNdIxud4-32" target="a1fxJlQlr97bYNdIxud4-34" edge="1">
          <mxGeometry relative="1" as="geometry" />
        </mxCell>
        <mxCell id="a1fxJlQlr97bYNdIxud4-32" value="player1.cards(2)" style="verticalLabelPosition=middle;verticalAlign=middle;html=1;shape=process;whiteSpace=wrap;rounded=1;size=0.16666666666666666;arcSize=6;fontSize=10;labelPosition=center;align=center;" parent="1" vertex="1">
          <mxGeometry x="270" y="450" width="120" height="40" as="geometry" />
        </mxCell>
        <mxCell id="a1fxJlQlr97bYNdIxud4-38" value="" style="edgeStyle=orthogonalEdgeStyle;rounded=0;orthogonalLoop=1;jettySize=auto;html=1;fontSize=10;" parent="1" source="a1fxJlQlr97bYNdIxud4-34" target="a1fxJlQlr97bYNdIxud4-36" edge="1">
          <mxGeometry relative="1" as="geometry" />
        </mxCell>
        <mxCell id="a1fxJlQlr97bYNdIxud4-34" value="COM.cards(2)" style="verticalLabelPosition=middle;verticalAlign=middle;html=1;shape=process;whiteSpace=wrap;rounded=1;size=0.16666666666666666;arcSize=6;fontSize=10;labelPosition=center;align=center;" parent="1" vertex="1">
          <mxGeometry x="270" y="520" width="120" height="40" as="geometry" />
        </mxCell>
        <mxCell id="a1fxJlQlr97bYNdIxud4-39" value="" style="edgeStyle=orthogonalEdgeStyle;rounded=0;orthogonalLoop=1;jettySize=auto;html=1;fontSize=10;" parent="1" source="a1fxJlQlr97bYNdIxud4-36" target="a1fxJlQlr97bYNdIxud4-37" edge="1">
          <mxGeometry relative="1" as="geometry" />
        </mxCell>
        <mxCell id="a1fxJlQlr97bYNdIxud4-36" value="player1.totalNum()" style="verticalLabelPosition=middle;verticalAlign=middle;html=1;shape=process;whiteSpace=wrap;rounded=1;size=0.16666666666666666;arcSize=6;fontSize=10;labelPosition=center;align=center;" parent="1" vertex="1">
          <mxGeometry x="270" y="590" width="120" height="40" as="geometry" />
        </mxCell>
        <mxCell id="BFHjRuG-B-UDDSGHZjsQ-2" value="" style="edgeStyle=orthogonalEdgeStyle;rounded=0;orthogonalLoop=1;jettySize=auto;html=1;fontSize=10;" edge="1" parent="1" source="a1fxJlQlr97bYNdIxud4-37" target="BFHjRuG-B-UDDSGHZjsQ-1">
          <mxGeometry relative="1" as="geometry" />
        </mxCell>
        <mxCell id="a1fxJlQlr97bYNdIxud4-37" value="COM.totalNum()" style="verticalLabelPosition=middle;verticalAlign=middle;html=1;shape=process;whiteSpace=wrap;rounded=1;size=0.16666666666666666;arcSize=6;fontSize=10;labelPosition=center;align=center;" parent="1" vertex="1">
          <mxGeometry x="270" y="660" width="120" height="40" as="geometry" />
        </mxCell>
        <mxCell id="BFHjRuG-B-UDDSGHZjsQ-15" style="edgeStyle=orthogonalEdgeStyle;rounded=0;orthogonalLoop=1;jettySize=auto;html=1;fontSize=10;entryX=0.5;entryY=0;entryDx=0;entryDy=0;" edge="1" parent="1" source="BFHjRuG-B-UDDSGHZjsQ-1" target="BFHjRuG-B-UDDSGHZjsQ-3">
          <mxGeometry relative="1" as="geometry">
            <mxPoint x="580" y="480" as="targetPoint" />
            <Array as="points">
              <mxPoint x="440" y="750" />
              <mxPoint x="440" y="490" />
              <mxPoint x="590" y="490" />
            </Array>
          </mxGeometry>
        </mxCell>
        <mxCell id="BFHjRuG-B-UDDSGHZjsQ-18" value="" style="edgeStyle=orthogonalEdgeStyle;rounded=0;orthogonalLoop=1;jettySize=auto;html=1;fontSize=10;" edge="1" parent="1" source="BFHjRuG-B-UDDSGHZjsQ-1" target="BFHjRuG-B-UDDSGHZjsQ-17">
          <mxGeometry relative="1" as="geometry" />
        </mxCell>
        <mxCell id="BFHjRuG-B-UDDSGHZjsQ-1" value="player1.total &amp;lt; 21" style="rhombus;whiteSpace=wrap;html=1;fontSize=10;rounded=1;arcSize=6;" vertex="1" parent="1">
          <mxGeometry x="270" y="730" width="120" height="40" as="geometry" />
        </mxCell>
        <mxCell id="BFHjRuG-B-UDDSGHZjsQ-6" value="" style="edgeStyle=orthogonalEdgeStyle;rounded=0;orthogonalLoop=1;jettySize=auto;html=1;fontSize=10;" edge="1" parent="1" source="BFHjRuG-B-UDDSGHZjsQ-3" target="BFHjRuG-B-UDDSGHZjsQ-5">
          <mxGeometry relative="1" as="geometry" />
        </mxCell>
        <mxCell id="BFHjRuG-B-UDDSGHZjsQ-3" value="&quot;Your hand is over 21...&quot;&lt;br&gt;を出力" style="whiteSpace=wrap;html=1;fontSize=10;rounded=1;arcSize=6;" vertex="1" parent="1">
          <mxGeometry x="530" y="540" width="120" height="40" as="geometry" />
        </mxCell>
        <mxCell id="BFHjRuG-B-UDDSGHZjsQ-10" value="" style="edgeStyle=orthogonalEdgeStyle;rounded=0;orthogonalLoop=1;jettySize=auto;html=1;fontSize=10;" edge="1" parent="1" source="BFHjRuG-B-UDDSGHZjsQ-5" target="BFHjRuG-B-UDDSGHZjsQ-9">
          <mxGeometry relative="1" as="geometry" />
        </mxCell>
        <mxCell id="BFHjRuG-B-UDDSGHZjsQ-5" value="もう一度プレイするか尋ねる．（y/n）" style="whiteSpace=wrap;html=1;fontSize=10;rounded=1;arcSize=6;" vertex="1" parent="1">
          <mxGeometry x="530" y="620" width="120" height="40" as="geometry" />
        </mxCell>
        <mxCell id="BFHjRuG-B-UDDSGHZjsQ-13" style="edgeStyle=orthogonalEdgeStyle;rounded=0;orthogonalLoop=1;jettySize=auto;html=1;fontSize=10;" edge="1" parent="1" source="BFHjRuG-B-UDDSGHZjsQ-9">
          <mxGeometry relative="1" as="geometry">
            <mxPoint x="330" y="360" as="targetPoint" />
            <Array as="points">
              <mxPoint x="720" y="710" />
              <mxPoint x="720" y="460" />
              <mxPoint x="520" y="460" />
              <mxPoint x="520" y="360" />
            </Array>
          </mxGeometry>
        </mxCell>
        <mxCell id="BFHjRuG-B-UDDSGHZjsQ-22" style="edgeStyle=orthogonalEdgeStyle;rounded=0;orthogonalLoop=1;jettySize=auto;html=1;entryX=0.5;entryY=0;entryDx=0;entryDy=0;fontSize=10;" edge="1" parent="1" source="BFHjRuG-B-UDDSGHZjsQ-9" target="BFHjRuG-B-UDDSGHZjsQ-21">
          <mxGeometry relative="1" as="geometry" />
        </mxCell>
        <mxCell id="BFHjRuG-B-UDDSGHZjsQ-9" value="ans == &quot;y&quot;" style="rhombus;whiteSpace=wrap;html=1;fontSize=10;rounded=1;arcSize=6;" vertex="1" parent="1">
          <mxGeometry x="530" y="690" width="120" height="40" as="geometry" />
        </mxCell>
        <mxCell id="BFHjRuG-B-UDDSGHZjsQ-11" value="&lt;font style=&quot;font-size: 10px;&quot;&gt;Yes&lt;/font&gt;" style="text;html=1;align=center;verticalAlign=middle;resizable=0;points=[];autosize=1;strokeColor=none;fillColor=none;fontSize=8;" vertex="1" parent="1">
          <mxGeometry x="330" y="330" width="40" height="30" as="geometry" />
        </mxCell>
        <mxCell id="BFHjRuG-B-UDDSGHZjsQ-16" value="&lt;font style=&quot;font-size: 10px;&quot;&gt;No&lt;/font&gt;" style="text;html=1;align=center;verticalAlign=middle;resizable=0;points=[];autosize=1;strokeColor=none;fillColor=none;fontSize=8;" vertex="1" parent="1">
          <mxGeometry x="390" y="719" width="40" height="30" as="geometry" />
        </mxCell>
        <mxCell id="BFHjRuG-B-UDDSGHZjsQ-24" value="" style="edgeStyle=orthogonalEdgeStyle;rounded=0;orthogonalLoop=1;jettySize=auto;html=1;fontSize=10;" edge="1" parent="1" source="BFHjRuG-B-UDDSGHZjsQ-17" target="BFHjRuG-B-UDDSGHZjsQ-23">
          <mxGeometry relative="1" as="geometry" />
        </mxCell>
        <mxCell id="BFHjRuG-B-UDDSGHZjsQ-17" value="プレイヤーの手札を出力" style="whiteSpace=wrap;html=1;rounded=1;arcSize=0;strokeWidth=2;" vertex="1" parent="1">
          <mxGeometry x="270" y="800" width="120" height="40" as="geometry" />
        </mxCell>
        <mxCell id="BFHjRuG-B-UDDSGHZjsQ-19" value="&lt;font size=&quot;1&quot;&gt;Yes&lt;/font&gt;" style="text;html=1;align=center;verticalAlign=middle;resizable=0;points=[];autosize=1;strokeColor=none;fillColor=none;fontSize=8;" vertex="1" parent="1">
          <mxGeometry x="641" y="689" width="40" height="30" as="geometry" />
        </mxCell>
        <mxCell id="BFHjRuG-B-UDDSGHZjsQ-21" value="終了" style="rounded=1;whiteSpace=wrap;html=1;absoluteArcSize=1;arcSize=100;strokeWidth=2;" vertex="1" parent="1">
          <mxGeometry x="641" y="860" width="120" height="40" as="geometry" />
        </mxCell>
        <mxCell id="BFHjRuG-B-UDDSGHZjsQ-28" value="" style="edgeStyle=orthogonalEdgeStyle;rounded=0;orthogonalLoop=1;jettySize=auto;html=1;fontSize=10;" edge="1" parent="1" source="BFHjRuG-B-UDDSGHZjsQ-23" target="BFHjRuG-B-UDDSGHZjsQ-27">
          <mxGeometry relative="1" as="geometry" />
        </mxCell>
        <mxCell id="BFHjRuG-B-UDDSGHZjsQ-23" value="プレイヤーの手札の数の合計を出力" style="whiteSpace=wrap;html=1;rounded=1;arcSize=0;strokeWidth=2;" vertex="1" parent="1">
          <mxGeometry x="270" y="870" width="120" height="40" as="geometry" />
        </mxCell>
        <mxCell id="BFHjRuG-B-UDDSGHZjsQ-37" style="edgeStyle=orthogonalEdgeStyle;rounded=0;orthogonalLoop=1;jettySize=auto;html=1;exitX=1;exitY=0.5;exitDx=0;exitDy=0;fontSize=10;" edge="1" parent="1" source="BFHjRuG-B-UDDSGHZjsQ-25" target="BFHjRuG-B-UDDSGHZjsQ-30">
          <mxGeometry relative="1" as="geometry">
            <mxPoint x="500" y="950" as="targetPoint" />
            <Array as="points">
              <mxPoint x="430" y="1040" />
              <mxPoint x="430" y="960" />
              <mxPoint x="500" y="960" />
            </Array>
          </mxGeometry>
        </mxCell>
        <mxCell id="BFHjRuG-B-UDDSGHZjsQ-46" value="" style="edgeStyle=orthogonalEdgeStyle;rounded=0;orthogonalLoop=1;jettySize=auto;html=1;fontSize=10;" edge="1" parent="1" source="BFHjRuG-B-UDDSGHZjsQ-25" target="BFHjRuG-B-UDDSGHZjsQ-39">
          <mxGeometry relative="1" as="geometry" />
        </mxCell>
        <mxCell id="BFHjRuG-B-UDDSGHZjsQ-25" value="ans == &quot;h&quot;" style="rhombus;whiteSpace=wrap;html=1;fontSize=10;rounded=1;arcSize=6;" vertex="1" parent="1">
          <mxGeometry x="270" y="1020" width="120" height="40" as="geometry" />
        </mxCell>
        <mxCell id="BFHjRuG-B-UDDSGHZjsQ-29" value="" style="edgeStyle=orthogonalEdgeStyle;rounded=0;orthogonalLoop=1;jettySize=auto;html=1;fontSize=10;" edge="1" parent="1" source="BFHjRuG-B-UDDSGHZjsQ-27" target="BFHjRuG-B-UDDSGHZjsQ-25">
          <mxGeometry relative="1" as="geometry" />
        </mxCell>
        <mxCell id="BFHjRuG-B-UDDSGHZjsQ-27" value="HitするかStandするか尋ねる(h/s)" style="whiteSpace=wrap;html=1;rounded=1;arcSize=0;strokeWidth=2;" vertex="1" parent="1">
          <mxGeometry x="270" y="950" width="120" height="40" as="geometry" />
        </mxCell>
        <mxCell id="BFHjRuG-B-UDDSGHZjsQ-32" value="" style="edgeStyle=orthogonalEdgeStyle;rounded=0;orthogonalLoop=1;jettySize=auto;html=1;fontSize=10;" edge="1" parent="1" source="BFHjRuG-B-UDDSGHZjsQ-30" target="BFHjRuG-B-UDDSGHZjsQ-31">
          <mxGeometry relative="1" as="geometry" />
        </mxCell>
        <mxCell id="BFHjRuG-B-UDDSGHZjsQ-30" value="COMの手札と合計を出力．" style="whiteSpace=wrap;html=1;rounded=1;arcSize=0;strokeWidth=2;" vertex="1" parent="1">
          <mxGeometry x="440" y="990" width="120" height="40" as="geometry" />
        </mxCell>
        <mxCell id="BFHjRuG-B-UDDSGHZjsQ-34" style="edgeStyle=orthogonalEdgeStyle;rounded=0;orthogonalLoop=1;jettySize=auto;html=1;fontSize=10;entryX=0.5;entryY=0;entryDx=0;entryDy=0;" edge="1" parent="1" source="BFHjRuG-B-UDDSGHZjsQ-31" target="BFHjRuG-B-UDDSGHZjsQ-33">
          <mxGeometry relative="1" as="geometry">
            <mxPoint x="660" y="970" as="targetPoint" />
            <Array as="points">
              <mxPoint x="500" y="1120" />
              <mxPoint x="570" y="1120" />
              <mxPoint x="570" y="960" />
              <mxPoint x="650" y="960" />
            </Array>
          </mxGeometry>
        </mxCell>
        <mxCell id="BFHjRuG-B-UDDSGHZjsQ-31" value="COM.total &amp;gt; player1.total" style="rhombus;whiteSpace=wrap;html=1;fontSize=10;rounded=1;arcSize=6;" vertex="1" parent="1">
          <mxGeometry x="440" y="1060" width="120" height="40" as="geometry" />
        </mxCell>
        <mxCell id="BFHjRuG-B-UDDSGHZjsQ-35" style="edgeStyle=orthogonalEdgeStyle;rounded=0;orthogonalLoop=1;jettySize=auto;html=1;fontSize=10;" edge="1" parent="1" source="BFHjRuG-B-UDDSGHZjsQ-33">
          <mxGeometry relative="1" as="geometry">
            <mxPoint x="590" y="590" as="targetPoint" />
            <Array as="points">
              <mxPoint x="650" y="1050" />
              <mxPoint x="730" y="1050" />
              <mxPoint x="730" y="910" />
              <mxPoint x="490" y="910" />
              <mxPoint x="490" y="590" />
            </Array>
          </mxGeometry>
        </mxCell>
        <mxCell id="BFHjRuG-B-UDDSGHZjsQ-33" value="&quot;You lose...&quot;を表示" style="whiteSpace=wrap;html=1;rounded=1;arcSize=0;strokeWidth=2;" vertex="1" parent="1">
          <mxGeometry x="590" y="990" width="120" height="40" as="geometry" />
        </mxCell>
        <mxCell id="BFHjRuG-B-UDDSGHZjsQ-47" value="" style="edgeStyle=orthogonalEdgeStyle;rounded=0;orthogonalLoop=1;jettySize=auto;html=1;fontSize=10;" edge="1" parent="1" source="BFHjRuG-B-UDDSGHZjsQ-39" target="BFHjRuG-B-UDDSGHZjsQ-40">
          <mxGeometry relative="1" as="geometry" />
        </mxCell>
        <mxCell id="BFHjRuG-B-UDDSGHZjsQ-39" value="player1.cards(1)" style="verticalLabelPosition=middle;verticalAlign=middle;html=1;shape=process;whiteSpace=wrap;rounded=1;size=0.16666666666666666;arcSize=6;fontSize=10;labelPosition=center;align=center;" vertex="1" parent="1">
          <mxGeometry x="270" y="1090" width="120" height="40" as="geometry" />
        </mxCell>
        <mxCell id="BFHjRuG-B-UDDSGHZjsQ-40" value="player1.totalNum()" style="verticalLabelPosition=middle;verticalAlign=middle;html=1;shape=process;whiteSpace=wrap;rounded=1;size=0.16666666666666666;arcSize=6;fontSize=10;labelPosition=center;align=center;" vertex="1" parent="1">
          <mxGeometry x="270" y="1160" width="120" height="40" as="geometry" />
        </mxCell>
      </root>
    </mxGraphModel>
  </diagram>
</mxfile>
